<svg viewBox="0 0 1212.76 590.99" xmlns="http://www.w3.org/2000/svg"><path d="m591 295.51c0-163.25-132.34-295.51-295.54-295.51s-295.46 132.26-295.46 295.51 132.32 295.49 295.46 295.49 295.54-132.31 295.54-295.49z" fill="#01b5e2"/><path d="m238.5 360.43h-20.24c-2.9 0-4.51-1.28-4.51-3.93v-69.5c0-11.59-6.28-20.25-20-20.25-12.66 0-20.28 9.18-20.28 20.78v68.69c0 2.93-1.57 4.21-4.2 4.21h-20.52c-2.88 0-4.2-1.28-4.2-3.93.27-43.16.27-79 0-159.49 0-2.9 1.31-4.19 3.93-4.19h20.52c2.41 0 4.29 1.29 4.29 4.19v49.72c0 2.36 1.52 3.17 4.46 1.29 6.32-4.2 15.53-6.29 22.6-6.29 29.25 0 42.4 19 42.4 45.27v69.22c0 2.93-1.59 4.21-4.23 4.21z" fill="#fff"/><path d="m358 319.34c0 23.72-15.54 43.19-43.67 43.19-9.46 0-17.38-3.11-21-5.8-3.19-2.1-4.48-1.3-4.48.77v46.1a3.89 3.89 0 0 1 -4.24 4.2h-20.29c-2.9 0-4.46-1.35-4.46-3.93v-156.07c0-2.41 1.56-4 4.18-4h19.78a3.66 3.66 0 0 1 3.9 3.71v2.1c0 1.07.75 2.67 2.89 1.07a41.92 41.92 0 0 1 25.5-8.43c28.44 0 41.86 19.49 41.86 45.26v31.81zm-28.67-31.55c0-11.58-7.13-20.24-20.26-20.24-11.86 0-20.57 8.92-20.26 20v29.74c0 11.32 7.89 20.5 20 20.5 14.48 0 20.52-9 20.52-20.5z" fill="#fff"/><path d="m414.56 361.77c-18.18 0-37.61-5.86-46.61-23.78-1-2.06-1.3-4.42 1.08-5.76l14.72-8.06c2.89-1.65 4.23-1.39 6 1 7.11 9 15.27 13.15 25.53 13.15 7.11 0 15.49-3.93 15.49-11 0-6.11-4.4-9-12.34-11.85-5-1.87-12.1-3.69-18.65-5.79-17.16-5.79-29.2-15-29.2-32.36 0-23.41 20-35.55 42.31-35.55 13.2 0 29.46 3.93 40.54 14.22 1.85 1.83 1.1 4.19-.29 6.29l-8.43 12.36a4 4 0 0 1 -2.83 1.33c-1.85 0-4.76-2.31-8.21-4-7.88-3.65-15-6-21.85-6-7.6 0-13.64 3.67-13.64 10.26 0 4.76 3.95 8.15 12.34 11.05 20.54 6.56 48.7 13.15 48.7 39.18 0 22.68-19.75 35.33-44.73 35.33z" fill="#fff"/><g fill="#203232"><path d="m756.17 361.86h-7.17c-1.38 0-1.66-.55-1.66-1.94v-9.41c0-1.66-1.38-2.49-3-.83-6.37 8.31-18.55 13.57-32.12 13.57-28.32-.01-43.82-18.25-43.82-43.25v-34.84c0-22.16 12.46-45.16 43.74-45.16 14.12 0 25.75 5.54 31.57 13.85 1.66 2.21 2.77 1.11 2.77-1.11v-65.32c0-1.38.55-1.94 1.94-1.94h7.75c1.11 0 1.94.55 1.94 1.66v173.06c0 1.11-.56 1.66-1.94 1.66zm-9.41-77.25c0-18.83-13.84-34.33-33.5-34.33-23.53 0-33.5 16.34-33.5 34.89v34.33c0 19.66 11.35 34.06 33.5 34.06 19.66 0 33.5-14.4 33.5-33.5z"/><path d="m794.1 214.83a8.45 8.45 0 0 1 0-16.89 8.16 8.16 0 0 1 8.31 8.31 8.57 8.57 0 0 1 -8.31 8.58zm-6.1 28.52a1.75 1.75 0 0 1 1.94-1.94h7.75a1.75 1.75 0 0 1 1.94 1.94v116.85c0 1.11-.55 1.66-1.94 1.66h-7.69c-1.11 0-1.94-.55-1.94-1.66z"/><path d="m913.72 416.13c-1.39.83-2.77 1.66-4.15-.28l-3.6-5c-.83-1.39-.55-2.49 1.11-3.6 6.92-4.43 14.67-12.74 14.67-22.15 0-18.27-21-23.54-39.6-23.54-11.91 0-27.41 2.22-41.26 3.88-3.32.55-5 .28-6.92-4.15-1.39-3-1.94-7.2-1.94-12.18 0-7.48 6.65-19.94 18.55-28.52.55-.28.83-.55.83-1.11 0-.28-.55-.83-1.11-1.39h-.3c-12.18-7.2-19.66-20.77-19.66-36 0-22.43 18.27-42.09 44-42.09 8.58 0 19.94 2.49 28.52 9.69a3.48 3.48 0 0 0 1.94 1.11 2.81 2.81 0 0 0 1.94-1.11 42.56 42.56 0 0 1 23.26-9.41h.83c1.39 0 1.94.83 1.94 2.77v8.31c0 1.38-.28 2.21-1.66 2.21h-.83a53.59 53.59 0 0 0 -16.89 3.32c-.83.28-1.38.83-1.38 1.39a7.19 7.19 0 0 0 1.11 2.77c3.6 5.54 5.54 13.57 5.54 20.49 0 26.58-21.32 43.19-44.86 43.19a47.65 47.65 0 0 1 -9.14-.55 8.27 8.27 0 0 0 -5.54 1.66c-7.48 5-16.06 15.23-16.06 23.81 0 5.54 1.11 6.09 5 5.26 9.41-1.94 24.92-3.88 33.5-3.88 26.3 0 52.05 9.14 52.05 33.23.05 13.04-7.98 24.95-19.89 31.87zm-39-165.86c-19.66 0-32.67 15-32.67 32.12 0 16.61 11.91 32.67 31.84 32.67 21 0 33.23-16.06 33.23-33.23s-12.51-31.56-32.44-31.56z"/><path d="m956.64 214.83a8.45 8.45 0 0 1 0-16.89 8.16 8.16 0 0 1 8.31 8.31 8.58 8.58 0 0 1 -8.31 8.58zm-6.09 28.52a1.75 1.75 0 0 1 1.94-1.94h7.75a1.75 1.75 0 0 1 1.94 1.94v116.85c0 1.11-.55 1.66-1.94 1.66h-7.75c-1.11 0-1.94-.55-1.94-1.66z"/><path d="m1005.09 330.3v-76.42c0-1.66-.55-2.49-2.22-2.49h-15.22c-1.39 0-1.66-.83-1.66-1.94v-6.09c0-1.38.55-1.94 1.66-1.94h15.51c1.38 0 1.94-.83 1.94-2.21v-28.21a2.11 2.11 0 0 1 1.94-2.21l7.47-1.94a1.75 1.75 0 0 1 2.22 1.94v30.41c0 1.38.28 2.21 1.66 2.21h30.73a1.75 1.75 0 0 1 1.94 1.94v6.09a1.75 1.75 0 0 1 -1.94 1.94h-30.46c-1.38 0-1.94.83-1.94 2.49v74.48c0 17.17 5.26 24.92 18.55 24.92a85.46 85.46 0 0 0 17.44-2.49c2.21-.55 2.77.55 3 1.66l1.11 5.54c.28 1.66 0 1.94-1.39 2.49-5.54 2.22-16.06 2.77-21.87 2.77-22.93 0-28.47-14.39-28.47-32.94z"/><path d="m1107.82 282.39c11.35 0 22.7 4.15 29.07 11.63 1.39 1.39 2.49.55 2.49-1.11v-12.73c0-15.23-5.54-30.18-30.18-30.18-8.58 0-22.15 2.49-29.35 5.81a1.65 1.65 0 0 1 -2.77-.83l-2.49-5.81a2.1 2.1 0 0 1 1.39-2.49c9.14-4.43 23-6.92 34.06-6.92 29.35 0 41 15 41 41.26v78.91a1.75 1.75 0 0 1 -1.94 1.94h-7.2a1.46 1.46 0 0 1 -1.66-1.66v-10.81c0-2.49-1.39-2.21-2.49-.83-6.92 9.41-18.27 14.67-32.12 14.67-25.47 0-39.87-16.06-39.87-39.6-.03-22.69 14.65-41.25 42.06-41.25zm-.55 71.44c18.55 0 31.56-14.12 31.56-31.29 0-16.89-11.63-31-30.73-31-20.21 0-31.56 14.4-31.56 31.57s8.85 30.72 30.73 30.72z"/><path d="m1212.76 361.31c0 1.39-.83 1.94-2.21 1.94h-5.26c-19.1 0-22.15-10.8-22.15-23.81v-152c0-1.11.28-1.94 1.66-1.94h7.75a1.75 1.75 0 0 1 1.94 1.94v148.12c0 11.08 2.21 16.89 13.29 16.89h2.77c2.21 0 2.21 1.11 2.21 2.49z"/></g></svg>